<svg width="25" height="25" viewBox="0 0 25 25" fill="none" xmlns="http://www.w3.org/2000/svg">
<path d="M23.2111 22.1016C23.2843 22.1742 23.3424 22.2606 23.3821 22.3558C23.4217 22.451 23.4422 22.5531 23.4422 22.6562C23.4422 22.7594 23.4217 22.8615 23.3821 22.9567C23.3424 23.0519 23.2843 23.1383 23.2111 23.2109C23.1384 23.2842 23.052 23.3423 22.9568 23.3819C22.8616 23.4216 22.7595 23.442 22.6564 23.442C22.5533 23.442 22.4511 23.4216 22.3559 23.3819C22.2607 23.3423 22.1743 23.2842 22.1017 23.2109L12.5001 13.6016L2.89857 23.2109C2.82595 23.2842 2.73954 23.3423 2.64434 23.3819C2.54913 23.4216 2.44702 23.442 2.34389 23.442C2.24075 23.442 2.13864 23.4216 2.04343 23.3819C1.94823 23.3423 1.86183 23.2842 1.7892 23.2109C1.71597 23.1383 1.65785 23.0519 1.61819 22.9567C1.57853 22.8615 1.55811 22.7594 1.55811 22.6562C1.55811 22.5531 1.57853 22.451 1.61819 22.3558C1.65785 22.2606 1.71597 22.1742 1.7892 22.1016L11.3986 12.5L1.7892 2.89844C1.64209 2.75132 1.55944 2.5518 1.55944 2.34375C1.55944 2.24073 1.57973 2.13873 1.61915 2.04355C1.65857 1.94838 1.71636 1.8619 1.7892 1.78906C1.86204 1.71622 1.94852 1.65844 2.04369 1.61902C2.13886 1.57959 2.24087 1.5593 2.34389 1.5593C2.55193 1.5593 2.75146 1.64195 2.89857 1.78906L12.5001 11.3984L22.1017 1.78906C22.2488 1.64195 22.4483 1.5593 22.6564 1.5593C22.8644 1.5593 23.064 1.64195 23.2111 1.78906C23.3582 1.93617 23.4408 2.1357 23.4408 2.34375C23.4408 2.5518 23.3582 2.75132 23.2111 2.89844L13.6017 12.5L23.2111 22.1016Z" fill="#606060"/>
</svg>
